<svg width="414" height="896" viewBox="0 0 414 896" fill="none" xmlns="http://www.w3.org/2000/svg">
<g clip-path="url(#clip0)">
<rect width="414" height="896" fill="#00072A"/>
<circle cx="342.51" cy="240.51" r="146.823" transform="rotate(-36.4471 342.51 240.51)" stroke="url(#paint0_linear)" stroke-opacity="0.25" stroke-width="91.7851"/>
<mask id="path-2-inside-1" fill="white">
<ellipse cx="21.2744" cy="98.7145" rx="69.1134" ry="71.4408" transform="rotate(142.684 21.2744 98.7145)"/>
</mask>
<path d="M39.3053 84.9707C44.3651 91.6087 45.8256 105.581 33.6073 114.894L-77.6751 -31.0996C-150.607 24.4922 -159.586 126.857 -106.689 196.253L39.3053 84.9707ZM33.6073 114.894C21.3891 124.208 8.30331 119.096 3.2435 112.458L149.237 1.17593C96.3406 -68.2206 -4.74299 -86.6914 -77.6751 -31.0996L33.6073 114.894ZM3.2435 112.458C-1.81631 105.82 -3.27681 91.8479 8.94144 82.5347L120.224 228.529C193.156 172.937 202.134 70.5725 149.237 1.17593L3.2435 112.458ZM8.94144 82.5347C21.1597 73.2214 34.2455 78.3326 39.3053 84.9707L-106.689 196.253C-53.7919 265.65 47.2918 284.12 120.224 228.529L8.94144 82.5347Z" fill="url(#paint1_linear)" fill-opacity="0.25" mask="url(#path-2-inside-1)"/>
<path d="M22.2329 909.345C-0.43537 922.432 -27.7109 914.721 -39.3597 894.545C-51.0084 874.369 -44.0488 846.892 -21.3804 833.804C1.28787 820.717 28.5634 828.428 40.2122 848.604C51.8609 868.78 44.9013 896.257 22.2329 909.345Z" stroke="url(#paint2_linear)" stroke-opacity="0.25" stroke-width="51"/>
</g>
<defs>
<linearGradient id="paint0_linear" x1="329.838" y1="27.8838" x2="359.444" y2="270.442" gradientUnits="userSpaceOnUse">
<stop stop-color="#00FC43"/>
<stop offset="1" stop-color="#00FF47" stop-opacity="0"/>
</linearGradient>
<linearGradient id="paint1_linear" x1="72.6712" y1="158.647" x2="9.2034" y2="94.0771" gradientUnits="userSpaceOnUse">
<stop stop-color="#00FC43"/>
<stop offset="1" stop-color="#00FF47" stop-opacity="0"/>
</linearGradient>
<linearGradient id="paint2_linear" x1="66.4158" y1="828.228" x2="-5.71062" y2="882.957" gradientUnits="userSpaceOnUse">
<stop stop-color="#068829"/>
<stop offset="1" stop-color="#00FF47" stop-opacity="0"/>
</linearGradient>
<clipPath id="clip0">
<rect width="414" height="896" fill="white"/>
</clipPath>
</defs>
</svg>
