<svg width="282" height="233" viewBox="0 0 282 233" fill="none" xmlns="http://www.w3.org/2000/svg">
<line x1="142.5" y1="10" x2="142.5" y2="223" stroke="url(#paint0_linear)" stroke-opacity="0.75" stroke-width="3"/>
<path d="M29 35C29 33.8954 29.8954 33 31 33H115.869C117.661 33 119.114 34.4529 119.114 36.2451C119.114 38.0374 117.661 39.4903 115.869 39.4903H31C29.8954 39.4903 29 38.5948 29 37.4903V35Z" fill="#5BA173"/>
<path d="M64.262 60.312C64.262 59.2074 65.1574 58.312 66.262 58.312H115.869C117.661 58.312 119.114 59.7649 119.114 61.5571C119.114 63.3494 117.661 64.8023 115.869 64.8023H66.262C65.1574 64.8023 64.262 63.9068 64.262 62.8023V60.312Z" fill="#5BA173"/>
<path d="M64.262 48.6295C64.262 47.5249 65.1574 46.6295 66.262 46.6295H115.869C117.661 46.6295 119.114 48.0824 119.114 49.8746C119.114 51.6669 117.661 53.1198 115.869 53.1198H66.262C65.1574 53.1198 64.262 52.2243 64.262 51.1198V48.6295Z" fill="#5BA173"/>
<path d="M29 48.6295C29 47.5249 29.8954 46.6295 31 46.6295H55.079C56.1836 46.6295 57.079 47.5249 57.079 48.6295V74.4847C57.079 75.5892 56.1836 76.4847 55.079 76.4847H31C29.8954 76.4847 29 75.5892 29 74.4847V48.6295Z" fill="#5BA173"/>
<path d="M29 95.3593C29 94.2547 29.8954 93.3593 31 93.3593H115.869C117.661 93.3593 119.114 94.8122 119.114 96.6044C119.114 98.3967 117.661 99.8496 115.869 99.8496H31C29.8954 99.8496 29 98.9541 29 97.8496V95.3593Z" fill="#5BA173" fill-opacity="0.8"/>
<path d="M64.262 120.671C64.262 119.567 65.1574 118.671 66.262 118.671H115.869C117.661 118.671 119.114 120.124 119.114 121.916C119.114 123.709 117.661 125.162 115.869 125.162H66.262C65.1574 125.162 64.262 124.266 64.262 123.162V120.671Z" fill="#5BA173" fill-opacity="0.8"/>
<path d="M64.262 108.989C64.262 107.884 65.1574 106.989 66.262 106.989H115.869C117.661 106.989 119.114 108.442 119.114 110.234C119.114 112.026 117.661 113.479 115.869 113.479H66.262C65.1574 113.479 64.262 112.584 64.262 111.479V108.989Z" fill="#5BA173" fill-opacity="0.8"/>
<path d="M29 108.989C29 107.884 29.8954 106.989 31 106.989H55.079C56.1836 106.989 57.079 107.884 57.079 108.989V134.844C57.079 135.949 56.1836 136.844 55.079 136.844H31C29.8954 136.844 29 135.949 29 134.844V108.989Z" fill="#5BA173" fill-opacity="0.8"/>
<path d="M247.132 96.5302C247.12 98.3224 245.658 99.766 243.866 99.7546L159 99.2132C157.895 99.2061 157.006 98.305 157.013 97.2005L157.029 94.7103C157.036 93.6057 157.937 92.716 159.042 92.7231L243.907 93.2645C245.7 93.2759 247.143 94.738 247.132 96.5302Z" fill="#5BA173" fill-opacity="0.8"/>
<path d="M212.524 109.286C212.512 111.078 211.05 112.522 209.258 112.51L159.653 112.194C158.548 112.187 157.659 111.285 157.666 110.181L157.682 107.691C157.689 106.586 158.59 105.697 159.695 105.704L209.3 106.02C211.092 106.031 212.535 107.494 212.524 109.286Z" fill="#5BA173" fill-opacity="0.8"/>
<path d="M212.524 121.617C212.512 123.409 211.05 124.853 209.258 124.842L159.653 124.525C158.548 124.518 157.659 123.617 157.666 122.512L157.682 120.022C157.689 118.918 158.59 118.028 159.695 118.035L209.3 118.351C211.092 118.363 212.535 119.825 212.524 121.617Z" fill="#5BA173" fill-opacity="0.8"/>
<path d="M247.785 36.8199C247.773 38.6121 246.311 40.0557 244.519 40.0442L159.653 39.5028C158.548 39.4958 157.659 38.5947 157.666 37.4901L157.682 34.9999C157.689 33.8954 158.59 33.0057 159.695 33.0127L244.561 33.5541C246.353 33.5656 247.796 35.0277 247.785 36.8199Z" fill="#5BA173"/>
<path d="M213.177 49.5755C213.165 51.3677 211.703 52.8113 209.911 52.7999L160.306 52.4834C159.201 52.4764 158.312 51.5752 158.319 50.4707L158.335 47.9805C158.342 46.8759 159.243 45.9862 160.348 45.9933L209.953 46.3097C211.745 46.3212 213.189 47.7833 213.177 49.5755Z" fill="#5BA173"/>
<path d="M213.177 61.907C213.165 63.6992 211.703 65.1428 209.911 65.1313L160.306 64.8149C159.201 64.8078 158.312 63.9067 158.319 62.8022L158.335 60.312C158.342 59.2074 159.243 58.3177 160.348 58.3248L209.953 58.6412C211.745 58.6527 213.189 60.1148 213.177 61.907Z" fill="#5BA173"/>
<path d="M247.125 134.374C247.118 135.478 246.216 136.368 245.112 136.361L221.034 136.207C219.929 136.2 219.04 135.299 219.047 134.194L219.214 108.34C219.221 107.235 220.122 106.346 221.227 106.353L245.305 106.506C246.409 106.513 247.299 107.414 247.292 108.519L247.125 134.374Z" fill="#5BA173" fill-opacity="0.8"/>
<path d="M247.125 74.6633C247.118 75.7678 246.216 76.6575 245.112 76.6504L221.034 76.4968C219.929 76.4898 219.04 75.5887 219.047 74.4841L219.214 48.6295C219.221 47.525 220.122 46.6353 221.227 46.6423L245.305 46.7959C246.409 46.803 247.299 47.7041 247.292 48.8086L247.125 74.6633Z" fill="#5BA173"/>
<path d="M5 15C5 9.47715 9.47715 5 15 5H267C272.523 5 277 9.47715 277 15V218C277 223.523 272.523 228 267 228H15C9.47715 228 5 223.523 5 218V15Z" stroke="url(#paint1_linear)" stroke-width="10"/>
<defs>
<linearGradient id="paint0_linear" x1="141" y1="116.5" x2="140" y2="116.5" gradientUnits="userSpaceOnUse">
<stop stop-color="#34A853" stop-opacity="0.57"/>
<stop offset="1" stop-color="#34A853" stop-opacity="0"/>
</linearGradient>
<linearGradient id="paint1_linear" x1="141" y1="-40.8886" x2="141.164" y2="178.158" gradientUnits="userSpaceOnUse">
<stop stop-color="#34A853"/>
<stop offset="1" stop-color="#34A853" stop-opacity="0.39"/>
</linearGradient>
</defs>
</svg>
