<svg width="185" height="257" viewBox="0 0 185 257" fill="none" xmlns="http://www.w3.org/2000/svg">
<mask id="mask0" mask-type="alpha" maskUnits="userSpaceOnUse" x="0" y="0" width="185" height="257">
<rect width="185" height="257" fill="#C4C4C4"/>
</mask>
<g mask="url(#mask0)">
<line x1="93.5" y1="68.8369" x2="93.5" y2="193.163" stroke="url(#paint0_linear)" stroke-opacity="0.75" stroke-width="3"/>
<path d="M30.8369 84.156C30.8369 83.1099 31.685 82.2618 32.7311 82.2618H78.154C79.2001 82.2618 80.0481 83.1099 80.0481 84.156V84.156C80.0481 85.2021 79.2001 86.0501 78.154 86.0501H32.7311C31.685 86.0501 30.8369 85.2021 30.8369 84.156V84.156Z" fill="#5BA173"/>
<path d="M50.0934 98.9303C50.0934 97.8842 50.9414 97.0361 51.9875 97.0361H78.1539C79.2 97.0361 80.048 97.8842 80.048 98.9303V98.9303C80.048 99.9764 79.2 100.824 78.1539 100.824H51.9875C50.9414 100.824 50.0934 99.9764 50.0934 98.9303V98.9303Z" fill="#5BA173"/>
<path d="M50.0934 92.1114C50.0934 91.0653 50.9414 90.2173 51.9875 90.2173H78.1539C79.2 90.2173 80.048 91.0653 80.048 92.1114V92.1114C80.048 93.1575 79.2 94.0056 78.1539 94.0056H51.9875C50.9414 94.0056 50.0934 93.1575 50.0934 92.1114V92.1114Z" fill="#5BA173"/>
<path d="M30.8369 92.2173C30.8369 91.1127 31.7323 90.2173 32.8369 90.2173H44.1708C45.2754 90.2173 46.1708 91.1127 46.1708 92.2173V105.643C46.1708 106.748 45.2754 107.643 44.1708 107.643H32.8369C31.7323 107.643 30.8369 106.748 30.8369 105.643V92.2173Z" fill="#5BA173"/>
<path d="M30.8369 119.387C30.8369 118.341 31.685 117.493 32.7311 117.493H78.154C79.2001 117.493 80.0481 118.341 80.0481 119.387V119.387C80.0481 120.433 79.2001 121.281 78.154 121.281H32.7311C31.685 121.281 30.8369 120.433 30.8369 119.387V119.387Z" fill="#5BA173" fill-opacity="0.8"/>
<path d="M50.0934 134.161C50.0934 133.115 50.9414 132.267 51.9875 132.267H78.1539C79.2 132.267 80.048 133.115 80.048 134.161V134.161C80.048 135.208 79.2 136.056 78.1539 136.056H51.9875C50.9414 136.056 50.0934 135.208 50.0934 134.161V134.161Z" fill="#5BA173" fill-opacity="0.8"/>
<path d="M50.0934 127.343C50.0934 126.296 50.9414 125.448 51.9875 125.448H78.1539C79.2 125.448 80.048 126.296 80.048 127.343V127.343C80.048 128.389 79.2 129.237 78.1539 129.237H51.9875C50.9414 129.237 50.0934 128.389 50.0934 127.343V127.343Z" fill="#5BA173" fill-opacity="0.8"/>
<path d="M30.8369 127.448C30.8369 126.344 31.7323 125.448 32.8369 125.448H44.1708C45.2754 125.448 46.1708 126.344 46.1708 127.448V140.875C46.1708 141.979 45.2754 142.875 44.1708 142.875H32.8369C31.7323 142.875 30.8369 141.979 30.8369 140.875V127.448Z" fill="#5BA173" fill-opacity="0.8"/>
<path d="M149.958 119.344C149.952 120.39 149.099 121.232 148.053 121.225L102.632 120.915C101.586 120.908 100.743 120.054 100.749 119.008V119.008C100.755 117.962 101.608 117.12 102.655 117.127L148.076 117.437C149.122 117.444 149.965 118.298 149.958 119.344V119.344Z" fill="#5BA173" fill-opacity="0.8"/>
<path d="M131.059 126.789C131.053 127.835 130.2 128.677 129.154 128.67L102.988 128.492C101.942 128.485 101.099 127.631 101.106 126.585V126.585C101.112 125.539 101.965 124.697 103.011 124.704L129.177 124.882C130.223 124.889 131.065 125.743 131.059 126.789V126.789Z" fill="#5BA173" fill-opacity="0.8"/>
<path d="M131.059 133.987C131.053 135.033 130.2 135.875 129.154 135.868L102.988 135.69C101.942 135.683 101.099 134.829 101.106 133.783V133.783C101.112 132.737 101.965 131.894 103.011 131.901L129.177 132.08C130.223 132.087 131.065 132.941 131.059 133.987V133.987Z" fill="#5BA173" fill-opacity="0.8"/>
<path d="M150.315 84.4915C150.309 85.5376 149.456 86.3798 148.409 86.3727L102.988 86.063C101.942 86.0559 101.099 85.2021 101.106 84.156V84.156C101.112 83.1099 101.965 82.2676 103.011 82.2748L148.432 82.5845C149.478 82.5916 150.321 83.4454 150.315 84.4915V84.4915Z" fill="#5BA173"/>
<path d="M131.416 91.9368C131.409 92.9829 130.556 93.8252 129.51 93.818L103.345 93.6396C102.299 93.6325 101.456 92.7787 101.462 91.7326V91.7326C101.469 90.6865 102.322 89.8443 103.368 89.8514L129.533 90.0298C130.579 90.0369 131.422 90.8907 131.416 91.9368V91.9368Z" fill="#5BA173"/>
<path d="M131.416 99.1346C131.409 100.181 130.556 101.023 129.51 101.016L103.345 100.837C102.299 100.83 101.456 99.9764 101.462 98.9303V98.9303C101.469 97.8842 102.322 97.042 103.368 97.0491L129.533 97.2275C130.579 97.2347 131.422 98.0885 131.416 99.1346V99.1346Z" fill="#5BA173"/>
<path d="M149.96 140.6C149.953 141.705 149.052 142.594 147.948 142.586L136.614 142.509C135.51 142.502 134.62 141.6 134.626 140.495L134.707 127.07C134.714 125.965 135.615 125.076 136.72 125.083L148.053 125.161C149.158 125.168 150.048 126.07 150.041 127.174L149.96 140.6Z" fill="#5BA173" fill-opacity="0.8"/>
<path d="M149.96 105.748C149.953 106.852 149.052 107.742 147.948 107.734L136.614 107.657C135.51 107.649 134.62 106.748 134.626 105.643L134.707 92.2173C134.714 91.1127 135.615 90.2234 136.72 90.2309L148.053 90.3082C149.158 90.3157 150.048 91.2173 150.041 92.3218L149.96 105.748Z" fill="#5BA173"/>
<path d="M30 68H154C159.523 68 164 72.4772 164 78V184C164 189.523 159.523 194 154 194H30C24.4772 194 20 189.523 20 184V78C20 72.4772 24.4772 68 30 68Z" stroke="url(#paint1_linear)" stroke-width="10"/>
<rect x="5" y="7" width="174" height="315" rx="26" stroke="url(#paint2_linear)" stroke-width="10"/>
<ellipse cx="93.2433" cy="229.939" rx="24.4505" ry="25.9122" fill="url(#paint3_linear)" fill-opacity="0.59"/>
<path d="M93.6576 227.743C92.31 227.743 91.1711 228.95 91.1711 230.378C91.1711 231.807 92.31 233.014 93.6576 233.014C95.0053 233.014 96.1441 231.807 96.1441 230.378C96.1441 228.95 95.0053 227.743 93.6576 227.743Z" fill="#34A853"/>
<path d="M100.288 224.23H98.145L95.9013 221.852C95.8245 221.77 95.7331 221.705 95.6326 221.661C95.532 221.617 95.4242 221.594 95.3153 221.595H92C91.8912 221.594 91.7833 221.617 91.6828 221.661C91.5822 221.705 91.4909 221.77 91.414 221.852L89.1704 224.23H87.027C86.1128 224.23 85.3694 225.018 85.3694 225.986V235.649C85.3694 236.618 86.1128 237.405 87.027 237.405H100.288C101.203 237.405 101.946 236.618 101.946 235.649V225.986C101.946 225.018 101.203 224.23 100.288 224.23ZM93.6577 234.77C91.4115 234.77 89.5135 232.759 89.5135 230.378C89.5135 227.998 91.4115 225.986 93.6577 225.986C95.9038 225.986 97.8018 227.998 97.8018 230.378C97.8018 232.759 95.9038 234.77 93.6577 234.77Z" fill="#34A853"/>
</g>
<defs>
<linearGradient id="paint0_linear" x1="92" y1="131" x2="91" y2="131" gradientUnits="userSpaceOnUse">
<stop stop-color="#34A853" stop-opacity="0.57"/>
<stop offset="1" stop-color="#34A853" stop-opacity="0"/>
</linearGradient>
<linearGradient id="paint1_linear" x1="92" y1="39.1337" x2="92.1026" y2="166.989" gradientUnits="userSpaceOnUse">
<stop stop-color="#34A853"/>
<stop offset="1" stop-color="#34A853" stop-opacity="0.39"/>
</linearGradient>
<linearGradient id="paint2_linear" x1="92" y1="-55.0334" x2="92.4903" y2="250.503" gradientUnits="userSpaceOnUse">
<stop stop-color="#34A853"/>
<stop offset="1" stop-color="#00072A"/>
</linearGradient>
<linearGradient id="paint3_linear" x1="60.919" y1="265.953" x2="121.087" y2="207.521" gradientUnits="userSpaceOnUse">
<stop stop-color="#5BA173"/>
<stop offset="1" stop-color="#5BA173" stop-opacity="0"/>
</linearGradient>
</defs>
</svg>
